<svg width="67" height="18" viewBox="0 0 67 18" fill="none" xmlns="http://www.w3.org/2000/svg">
<path d="M6.89141 6.897C7.32208 6.965 7.71308 7.14067 8.06441 7.424C8.42708 7.70733 8.71041 8.05867 8.91441 8.478C9.12975 8.89733 9.23741 9.345 9.23741 9.821C9.23741 10.4217 9.08441 10.9657 8.77841 11.453C8.47241 11.929 8.02475 12.3087 7.43541 12.592C6.85741 12.864 6.17175 13 5.37841 13H0.958414V1.151H5.20841C6.01308 1.151 6.69875 1.287 7.26541 1.559C7.83208 1.81967 8.25708 2.17667 8.54041 2.63C8.82375 3.08333 8.96541 3.59333 8.96541 4.16C8.96541 4.86267 8.77275 5.44633 8.38741 5.911C8.01341 6.36433 7.51475 6.693 6.89141 6.897ZM2.50541 6.268H5.10641C5.83175 6.268 6.39275 6.098 6.78941 5.758C7.18608 5.418 7.38441 4.94767 7.38441 4.347C7.38441 3.74633 7.18608 3.276 6.78941 2.936C6.39275 2.596 5.82041 2.426 5.07241 2.426H2.50541V6.268ZM5.24241 11.725C6.01308 11.725 6.61375 11.5437 7.04441 11.181C7.47508 10.8183 7.69041 10.314 7.69041 9.668C7.69041 9.01067 7.46375 8.495 7.01041 8.121C6.55708 7.73567 5.95075 7.543 5.19141 7.543H2.50541V11.725H5.24241ZM19.6462 3.684V13H18.0992V11.623C17.8045 12.099 17.3909 12.473 16.8582 12.745C16.3369 13.0057 15.7589 13.136 15.1242 13.136C14.3989 13.136 13.7472 12.9887 13.1692 12.694C12.5912 12.388 12.1322 11.9347 11.7922 11.334C11.4635 10.7333 11.2992 10.0023 11.2992 9.141V3.684H12.8292V8.937C12.8292 9.855 13.0615 10.5633 13.5262 11.062C13.9909 11.5493 14.6255 11.793 15.4302 11.793C16.2575 11.793 16.9092 11.538 17.3852 11.028C17.8612 10.518 18.0992 9.77567 18.0992 8.801V3.684H19.6462ZM23.0572 2.171C22.7626 2.171 22.5132 2.069 22.3092 1.865C22.1052 1.661 22.0032 1.41167 22.0032 1.117C22.0032 0.822333 22.1052 0.573 22.3092 0.368999C22.5132 0.164999 22.7626 0.0629994 23.0572 0.0629994C23.3406 0.0629994 23.5786 0.164999 23.7712 0.368999C23.9752 0.573 24.0772 0.822333 24.0772 1.117C24.0772 1.41167 23.9752 1.661 23.7712 1.865C23.5786 2.069 23.3406 2.171 23.0572 2.171ZM23.8052 3.684V13H22.2582V3.684H23.8052ZM27.9888 0.42V13H26.4418V0.42H27.9888ZM30.0474 8.308C30.0474 7.356 30.2401 6.523 30.6254 5.809C31.0107 5.08367 31.5377 4.52267 32.2064 4.126C32.8864 3.72933 33.6457 3.531 34.4844 3.531C35.2097 3.531 35.8841 3.701 36.5074 4.041C37.1307 4.36967 37.6067 4.806 37.9354 5.35V0.42H39.4994V13H37.9354V11.249C37.6294 11.8043 37.1761 12.2633 36.5754 12.626C35.9747 12.9773 35.2721 13.153 34.4674 13.153C33.6401 13.153 32.8864 12.949 32.2064 12.541C31.5377 12.133 31.0107 11.5607 30.6254 10.824C30.2401 10.0873 30.0474 9.24867 30.0474 8.308ZM37.9354 8.325C37.9354 7.62233 37.7937 7.01033 37.5104 6.489C37.2271 5.96767 36.8417 5.571 36.3544 5.299C35.8784 5.01567 35.3514 4.874 34.7734 4.874C34.1954 4.874 33.6684 5.01 33.1924 5.282C32.7164 5.554 32.3367 5.95067 32.0534 6.472C31.7701 6.99333 31.6284 7.60533 31.6284 8.308C31.6284 9.022 31.7701 9.64533 32.0534 10.178C32.3367 10.6993 32.7164 11.1017 33.1924 11.385C33.6684 11.657 34.1954 11.793 34.7734 11.793C35.3514 11.793 35.8784 11.657 36.3544 11.385C36.8417 11.1017 37.2271 10.6993 37.5104 10.178C37.7937 9.64533 37.9354 9.02767 37.9354 8.325ZM42.9127 2.171C42.618 2.171 42.3687 2.069 42.1647 1.865C41.9607 1.661 41.8587 1.41167 41.8587 1.117C41.8587 0.822333 41.9607 0.573 42.1647 0.368999C42.3687 0.164999 42.618 0.0629994 42.9127 0.0629994C43.196 0.0629994 43.434 0.164999 43.6267 0.368999C43.8307 0.573 43.9327 0.822333 43.9327 1.117C43.9327 1.41167 43.8307 1.661 43.6267 1.865C43.434 2.069 43.196 2.171 42.9127 2.171ZM43.6607 3.684V13H42.1137V3.684H43.6607ZM50.8363 3.514C51.9696 3.514 52.8876 3.85967 53.5903 4.551C54.2929 5.231 54.6443 6.217 54.6443 7.509V13H53.1143V7.73C53.1143 6.80067 52.8819 6.09233 52.4173 5.605C51.9526 5.10633 51.3179 4.857 50.5133 4.857C49.6973 4.857 49.0456 5.112 48.5583 5.622C48.0823 6.132 47.8443 6.87433 47.8443 7.849V13H46.2973V3.684H47.8443V5.01C48.1503 4.534 48.5639 4.16567 49.0853 3.905C49.6179 3.64433 50.2016 3.514 50.8363 3.514ZM61.0133 3.531C61.818 3.531 62.5206 3.70667 63.1213 4.058C63.7333 4.40933 64.1866 4.85133 64.4813 5.384V3.684H66.0453V13.204C66.0453 14.054 65.864 14.8077 65.5013 15.465C65.1386 16.1337 64.6173 16.655 63.9373 17.029C63.2686 17.403 62.4866 17.59 61.5913 17.59C60.3673 17.59 59.3473 17.301 58.5313 16.723C57.7153 16.145 57.2336 15.3573 57.0863 14.36H58.6163C58.7863 14.9267 59.1376 15.38 59.6703 15.72C60.203 16.0713 60.8433 16.247 61.5913 16.247C62.4413 16.247 63.1326 15.9807 63.6653 15.448C64.2093 14.9153 64.4813 14.1673 64.4813 13.204V11.249C64.1753 11.793 63.722 12.2463 63.1213 12.609C62.5206 12.9717 61.818 13.153 61.0133 13.153C60.186 13.153 59.4323 12.949 58.7523 12.541C58.0836 12.133 57.5566 11.5607 57.1713 10.824C56.786 10.0873 56.5933 9.24867 56.5933 8.308C56.5933 7.356 56.786 6.523 57.1713 5.809C57.5566 5.08367 58.0836 4.52267 58.7523 4.126C59.4323 3.72933 60.186 3.531 61.0133 3.531ZM64.4813 8.325C64.4813 7.62233 64.3396 7.01033 64.0563 6.489C63.773 5.96767 63.3876 5.571 62.9003 5.299C62.4243 5.01567 61.8973 4.874 61.3193 4.874C60.7413 4.874 60.2143 5.01 59.7383 5.282C59.2623 5.554 58.8826 5.95067 58.5993 6.472C58.316 6.99333 58.1743 7.60533 58.1743 8.308C58.1743 9.022 58.316 9.64533 58.5993 10.178C58.8826 10.6993 59.2623 11.1017 59.7383 11.385C60.2143 11.657 60.7413 11.793 61.3193 11.793C61.8973 11.793 62.4243 11.657 62.9003 11.385C63.3876 11.1017 63.773 10.6993 64.0563 10.178C64.3396 9.64533 64.4813 9.02767 64.4813 8.325Z" fill="#403E3B"/>
</svg>
